# alfalfa_seed_barrel.obj
# Auto-generated by AssetConverter v0.1

mtllib test.mtl

usemtl test

v 0.1875 1.0 0.8125
v 0.8125 1.0 0.8125
v 0.8125 1.0 0.1875
v 0.1875 1.0 0.1875
v 0.1875 0.0 0.1875
v 0.8125 0.0 0.1875
v 0.8125 0.0 0.8125
v 0.1875 0.0 0.8125
v 0.375 0.0 0.1875
v 0.3125 0.1875 0.0625
v 0.6875 0.1875 0.0625
v 0.625 0.0 0.1875
v 0.1875 0.0 0.375
v 0.0625 0.1875 0.3125
v 0.3125 0.1875 0.0625
v 0.375 0.0 0.1875
v 0.1875 0.0 0.625
v 0.0625 0.1875 0.6875
v 0.0625 0.1875 0.3125
v 0.1875 0.0 0.375
v 0.375 0.0 0.8125
v 0.3125 0.1875 0.9375
v 0.0625 0.1875 0.6875
v 0.1875 0.0 0.625
v 0.8125 0.0 0.625
v 0.9375 0.1875 0.6875
v 0.6875 0.1875 0.9375
v 0.625 0.0 0.8125
v 0.8125 0.0 0.375
v 0.9375 0.1875 0.3125
v 0.9375 0.1875 0.6875
v 0.8125 0.0 0.625
v 0.625 0.0 0.1875
v 0.6875 0.1875 0.0625
v 0.9375 0.1875 0.3125
v 0.8125 0.0 0.375
v 0.625 0.0 0.8125
v 0.6875 0.1875 0.9375
v 0.3125 0.1875 0.9375
v 0.375 0.0 0.8125
v 0.0625 0.1875 0.6875
v 0.0625 0.8125 0.6875
v 0.0625 0.8125 0.3125
v 0.0625 0.1875 0.3125
v 0.3125 0.1875 0.0625
v 0.3125 0.8125 0.0625
v 0.6875 0.8125 0.0625
v 0.6875 0.1875 0.0625
v 0.9375 0.1875 0.3125
v 0.9375 0.8125 0.3125
v 0.9375 0.8125 0.6875
v 0.9375 0.1875 0.6875
v 0.6875 0.1875 0.9375
v 0.6875 0.8125 0.9375
v 0.3125 0.8125 0.9375
v 0.3125 0.1875 0.9375
v 0.3125 0.1875 0.9375
v 0.3125 0.8125 0.9375
v 0.0625 0.8125 0.6875
v 0.0625 0.1875 0.6875
v 0.9375 0.1875 0.6875
v 0.9375 0.8125 0.6875
v 0.6875 0.8125 0.9375
v 0.6875 0.1875 0.9375
v 0.6875 0.1875 0.0625
v 0.6875 0.8125 0.0625
v 0.9375 0.8125 0.3125
v 0.9375 0.1875 0.3125
v 0.0625 0.1875 0.3125
v 0.0625 0.8125 0.3125
v 0.3125 0.8125 0.0625
v 0.3125 0.1875 0.0625
v 0.0625 0.8125 0.6875
v 0.1875 1.0 0.625
v 0.1875 1.0 0.375
v 0.0625 0.8125 0.3125
v 0.3125 0.8125 0.0625
v 0.375 1.0 0.1875
v 0.625 1.0 0.1875
v 0.6875 0.8125 0.0625
v 0.9375 0.8125 0.3125
v 0.8125 1.0 0.375
v 0.8125 1.0 0.625
v 0.9375 0.8125 0.6875
v 0.6875 0.8125 0.9375
v 0.625 1.0 0.8125
v 0.375 1.0 0.8125
v 0.3125 0.8125 0.9375
v 0.3125 0.8125 0.9375
v 0.375 1.0 0.8125
v 0.1875 1.0 0.625
v 0.0625 0.8125 0.6875
v 0.9375 0.8125 0.6875
v 0.8125 1.0 0.625
v 0.625 1.0 0.8125
v 0.6875 0.8125 0.9375
v 0.6875 0.8125 0.0625
v 0.625 1.0 0.1875
v 0.8125 1.0 0.375
v 0.9375 0.8125 0.3125
v 0.0625 0.8125 0.3125
v 0.1875 1.0 0.375
v 0.375 1.0 0.1875
v 0.3125 0.8125 0.0625
# 105 vertices

vt 0.0 1.0
vt 0.0 0.92
vt 0.08 0.92
vt 0.08 1.0
vt 0.08 1.0
vt 0.08 0.92
vt 0.16 0.92
vt 0.16 1.0
vt 0.16 1.0
vt 0.16 0.92
vt 0.24 0.92
vt 0.24 1.0
vt 0.16 1.0
vt 0.16 0.92
vt 0.24 0.92
vt 0.24 1.0
vt 0.16 1.0
vt 0.16 0.92
vt 0.24 0.92
vt 0.24 1.0
vt 0.16 1.0
vt 0.16 0.92
vt 0.24 0.92
vt 0.24 1.0
vt 0.16 1.0
vt 0.16 0.92
vt 0.24 0.92
vt 0.24 1.0
vt 0.16 1.0
vt 0.16 0.92
vt 0.24 0.92
vt 0.24 1.0
vt 0.16 1.0
vt 0.16 0.92
vt 0.24 0.92
vt 0.24 1.0
vt 0.16 1.0
vt 0.16 0.92
vt 0.24 0.92
vt 0.24 1.0
vt 0.08 0.6
vt 0.08 0.52
vt 0.16 0.52
vt 0.16 0.6
vt 0.08 0.6
vt 0.08 0.52
vt 0.16 0.52
vt 0.16 0.6
vt 0.08 0.6
vt 0.08 0.52
vt 0.16 0.52
vt 0.16 0.6
vt 0.08 0.6
vt 0.08 0.52
vt 0.16 0.52
vt 0.16 0.6
vt 0.24 1.0
vt 0.24 0.92
vt 0.32 0.92
vt 0.32 1.0
vt 0.24 1.0
vt 0.24 0.92
vt 0.32 0.92
vt 0.32 1.0
vt 0.24 1.0
vt 0.24 0.92
vt 0.32 0.92
vt 0.32 1.0
vt 0.24 1.0
vt 0.24 0.92
vt 0.32 0.92
vt 0.32 1.0
vt 0.32 1.0
vt 0.32 0.92
vt 0.39999998 0.92
vt 0.39999998 1.0
vt 0.32 1.0
vt 0.32 0.92
vt 0.39999998 0.92
vt 0.39999998 1.0
vt 0.32 1.0
vt 0.32 0.92
vt 0.39999998 0.92
vt 0.39999998 1.0
vt 0.32 1.0
vt 0.32 0.92
vt 0.39999998 0.92
vt 0.39999998 1.0
vt 0.32 1.0
vt 0.32 0.92
vt 0.39999998 0.92
vt 0.39999998 1.0
vt 0.32 1.0
vt 0.32 0.92
vt 0.39999998 0.92
vt 0.39999998 1.0
vt 0.32 1.0
vt 0.32 0.92
vt 0.39999998 0.92
vt 0.39999998 1.0
vt 0.32 1.0
vt 0.32 0.92
vt 0.39999998 0.92
vt 0.39999998 1.0
# 105 texture coordinates

vn 0.0 1.0 -0.0
vn -0.0 -1.0 -0.0
vn -0.0 -0.5547002 -0.83205026
vn -0.5773503 -0.5773503 -0.5773503
vn -0.83205026 -0.5547002 0.0
vn -0.5773503 -0.5773503 0.5773503
vn 0.5773503 -0.5773503 0.5773503
vn 0.83205026 -0.5547002 0.0
vn 0.5773503 -0.5773503 -0.5773503
vn 0.0 -0.5547002 0.83205026
vn -1.0 0.0 0.0
vn -0.0 -0.0 -1.0
vn 1.0 0.0 0.0
vn -0.0 0.0 1.0
vn -0.70710677 0.0 0.70710677
vn 0.70710677 0.0 0.70710677
vn 0.70710677 0.0 -0.70710677
vn -0.70710677 -0.0 -0.70710677
vn -0.8320503 0.5547002 0.0
vn 0.0 0.5547002 -0.8320503
vn 0.8320503 0.5547002 0.0
vn -0.0 0.5547002 0.8320503
vn -0.57735026 0.57735026 0.57735026
vn 0.57735026 0.57735026 0.57735026
vn 0.57735026 0.57735026 -0.57735026
vn -0.57735026 0.57735026 -0.57735026
# 27 normals

f 1/1/1 2/2/1 3/3/1 4/4/1
f 5/5/2 6/6/2 7/7/2 8/8/2
f 16/9/3 72/10/3 65/11/3 33/12/3
f 20/13/4 69/14/4 72/15/4 16/16/4
f 24/17/5 60/18/5 69/19/5 20/20/5
f 40/21/6 57/22/6 60/23/6 24/24/6
f 32/25/7 61/26/7 64/27/7 37/28/7
f 36/29/8 68/30/8 61/31/8 32/32/8
f 33/33/9 65/34/9 68/35/9 36/36/9
f 37/37/10 64/38/10 57/39/10 40/40/10
f 60/41/11 92/42/11 101/43/11 69/44/11
f 72/45/12 104/46/12 97/47/12 65/48/12
f 68/49/13 100/50/13 93/51/13 61/52/13
f 64/53/14 96/54/14 89/55/14 57/56/14
f 57/57/15 89/58/15 92/59/15 60/60/15
f 61/61/16 93/62/16 96/63/16 64/64/16
f 65/65/17 97/66/17 100/67/17 68/68/17
f 69/69/18 101/70/18 104/71/18 72/72/18
f 92/73/19 91/74/19 102/75/19 101/76/19
f 104/77/20 103/78/20 98/79/20 97/80/20
f 100/81/21 99/82/21 94/83/21 93/84/21
f 96/85/22 95/86/22 90/87/22 89/88/22
f 89/89/23 90/90/23 91/91/23 92/92/23
f 93/93/24 94/94/24 95/95/24 96/96/24
f 97/97/25 98/98/25 99/99/25 100/100/25
f 101/101/26 102/102/26 103/103/26 104/104/26
# 27 faces
